# xmcd
#
# Track frame offsets:
#	150
#	17785
#	38041
#	60763
#	82968
#	104214
#	122584
#	145865
#	169715
#	187544
#
# Disc length: 2825 seconds
#
# Revision: 1
# Processed by: cddbd v1.5.2PL0 Copyright (c) Steve Scherf et al.
# Submitted via: EZCDAudioConverter 8.0.2.1
#
DISCID=730b070a
DTITLE=Mạnh Quỳnh, Lưu Mỹ Linh - Xuân 2000
DYEAR=2000
DGENRE=country
TTITLE0=Mạnh Quỳnh - Anh cho em mùa xuân
TTITLE1=Lưu Mỹ Linh - Đón xuân này nhớ xuân xưa
TTITLE2=Mạnh Quỳnh - Mừng tuổi mẹ
TTITLE3=Lưu Mỹ Linh - Ngày xuân vui cưới
TTITLE4=Mạnh Quỳnh - Cánh thiệp đầu xuân
TTITLE5=Mạnh Quỳnh, Lưu Mỹ Linh - Ước nguyện đầu xuân
TTITLE6=Mạnh Quỳnh - Chúc xuân vui vẻ
TTITLE7=Lưu Mỹ Linh - Gác nhỏ đêm xuân
TTITLE8=Mạnh Quỳnh - Cánh bướm vườn xuân
TTITLE9=Lưu Mỹ Linh - Câu chuyên đầu năm
EXTD=
EXTT0=
EXTT1=
EXTT2=
EXTT3=
EXTT4=
EXTT5=
EXTT6=
EXTT7=
EXTT8=
EXTT9=
PLAYORDER=
